<svg class="svg-icon" style="width: 1em; height: 1em;vertical-align: middle;fill: currentColor;overflow: hidden;" viewBox="0 0 1024 1024" version="1.1" xmlns="http://www.w3.org/2000/svg"><path d="M265.386667 450.730667s0-197.632 181.76-197.632v133.290666l-181.76 64.341334zM690.602667 450.730667s0-197.632 181.76-197.632v133.290666l-181.76 64.341334zM690.602667 868.778667s0-197.632 181.76-197.632v133.290666l-181.76 64.341334zM265.386667 868.778667s0-197.632 181.76-197.632v133.290666l-181.76 64.341334z" fill="#64EDAC" /><path d="M378.88 484.864H219.904c-56.490667 0-102.4-45.909333-102.4-102.4V223.488c0-56.490667 45.909333-102.4 102.4-102.4H378.88c56.490667 0 102.4 45.909333 102.4 102.4v158.976c0 56.490667-45.909333 102.4-102.4 102.4zM219.904 189.354667c-18.858667 0-34.133333 15.274667-34.133333 34.133333v158.976c0 18.858667 15.274667 34.133333 34.133333 34.133333H378.88c18.858667 0 34.133333-15.274667 34.133333-34.133333V223.488c0-18.858667-15.274667-34.133333-34.133333-34.133333H219.904zM804.096 484.864H645.12c-56.490667 0-102.4-45.909333-102.4-102.4V223.488c0-56.490667 45.909333-102.4 102.4-102.4h158.976c56.490667 0 102.4 45.909333 102.4 102.4v158.976c0 56.490667-45.909333 102.4-102.4 102.4zM645.12 189.354667c-18.858667 0-34.133333 15.274667-34.133333 34.133333v158.976c0 18.858667 15.274667 34.133333 34.133333 34.133333h158.976c18.858667 0 34.133333-15.274667 34.133333-34.133333V223.488c0-18.858667-15.274667-34.133333-34.133333-34.133333H645.12zM804.096 902.912H645.12c-56.490667 0-102.4-45.909333-102.4-102.4V641.536c0-56.490667 45.909333-102.4 102.4-102.4h158.976c56.490667 0 102.4 45.909333 102.4 102.4v158.976c0 56.490667-45.909333 102.4-102.4 102.4zM645.12 607.402667c-18.858667 0-34.133333 15.274667-34.133333 34.133333v158.976c0 18.858667 15.274667 34.133333 34.133333 34.133333h158.976c18.858667 0 34.133333-15.274667 34.133333-34.133333V641.536c0-18.858667-15.274667-34.133333-34.133333-34.133333H645.12zM378.88 902.912H219.904c-56.490667 0-102.4-45.909333-102.4-102.4V641.536c0-56.490667 45.909333-102.4 102.4-102.4H378.88c56.490667 0 102.4 45.909333 102.4 102.4v158.976c0 56.490667-45.909333 102.4-102.4 102.4zM219.904 607.402667c-18.858667 0-34.133333 15.274667-34.133333 34.133333v158.976c0 18.858667 15.274667 34.133333 34.133333 34.133333H378.88c18.858667 0 34.133333-15.274667 34.133333-34.133333V641.536c0-18.858667-15.274667-34.133333-34.133333-34.133333H219.904z" fill="#333C4F" /></svg>