<svg class="svg-icon" style="width: 1em; height: 1em;vertical-align: middle;fill: currentColor;overflow: hidden;" viewBox="0 0 1024 1024" version="1.1" xmlns="http://www.w3.org/2000/svg"><path d="M777.301333 627.626667H427.776c-22.954667 0-42.24-17.408-44.458667-40.277334l-28.074666-281.685333a24.132267 24.132267 0 0 1 23.978666-26.538667h397.994667c24.661333 0 44.714667 20.053333 44.714667 44.714667v259.072a44.629333 44.629333 0 0 1-44.629334 44.714667z" fill="#64EDAC" /><path d="M803.413333 739.072H407.722667c-63.232 0-115.626667-47.445333-121.856-110.336L247.893333 249.173333a54.442667 54.442667 0 0 0-45.056-48.128l-75.690666-11.349333a34.176 34.176 0 0 1-28.672-38.826667 34.176 34.176 0 0 1 38.826666-28.586666l76.202667 11.434666c54.954667 9.130667 96.768 53.845333 102.314667 108.714667l37.973333 379.562667a54.0416 54.0416 0 0 0 53.930667 48.810666h395.690666c29.866667 0 54.186667-24.32 54.186667-54.186666V297.045333c0-29.866667-24.32-54.186667-54.186667-54.186666H448.085333c-18.858667 0-34.133333-15.274667-34.133333-34.133334s15.274667-34.133333 34.133333-34.133333h355.328c67.584 0 122.453333 54.954667 122.453334 122.453333v319.573334c0 67.498667-54.954667 122.453333-122.453334 122.453333z" fill="#333C4F" /><path d="M752.298667 419.498667H444.586667c-18.773333 0-34.133333-15.36-34.133334-34.133334s15.36-34.133333 34.133334-34.133333h307.712c18.773333 0 34.133333 15.36 34.133333 34.133333s-15.36 34.133333-34.133333 34.133334zM752.298667 573.696H444.586667c-18.773333 0-34.133333-15.36-34.133334-34.133333s15.36-34.133333 34.133334-34.133334h307.712c18.773333 0 34.133333 15.36 34.133333 34.133334s-15.36 34.133333-34.133333 34.133333z" fill="#333C4F" /><path d="M501.077333 825.258667m-42.666666 0a42.666667 42.666667 0 1 0 85.333333 0 42.666667 42.666667 0 1 0-85.333333 0Z" fill="#333C4F" /><path d="M771.072 825.258667m-42.666667 0a42.666667 42.666667 0 1 0 85.333334 0 42.666667 42.666667 0 1 0-85.333334 0Z" fill="#333C4F" /></svg>